<?xml version="1.0" encoding="utf-8"?>
<svg width="287px" height="287px" viewBox="0 0 287 287" version="1.1" xmlns:xlink="http://www.w3.org/1999/xlink" xmlns="http://www.w3.org/2000/svg">
  <defs>
    <linearGradient gradientUnits="userSpaceOnUse" x1="86.7617" y1="1.4305115E-06" x2="285.30078" y2="290.66605" id="gradient_1">
      <stop offset="0%" stop-color="#13DEAF" />
      <stop offset="98.044464%" stop-color="#051476" />
    </linearGradient>
    <filter filterUnits="userSpaceOnUse" color-interpolation-filters="sRGB" id="filter_1">
      <feFlood flood-opacity="0" result="BackgroundImageFix" />
      <feBlend mode="normal" in="SourceGraphic" in2="BackgroundImageFix" result="shape" />
      <feColorMatrix in="SourceAlpha" type="matrix" values="0 0 0 0 0 0 0 0 0 0 0 0 0 0 0 0 0 0 127 0" result="hardAlpha" />
      <feOffset dx="0" dy="2" />
      <feGaussianBlur stdDeviation="0.5" />
      <feComposite in2="hardAlpha" operator="arithmetic" k2="-1" k3="1" />
      <feColorMatrix type="matrix" values="0 0 0 0 0.39215687 0 0 0 0 0.39215687 0 0 0 0 0.39215687 0 0 0 0.49803922 0" />
      <feBlend mode="normal" in2="shape" result="effect0_innerShadow" />
    </filter>
    <path d="M152.372 194.468C144.788 194.468 138.044 191.516 132.14 185.612C126.236 179.708 123.284 172.916 123.284 165.236C123.284 157.556 125.828 150.836 130.916 145.076L172.82 186.692C166.868 191.876 160.052 194.468 152.372 194.468L152.372 194.468ZM153.956 130.532L152.66 130.532C143.54 130.532 135.596 133.964 128.828 140.828C122.06 147.692 118.676 155.684 118.676 164.804C118.676 173.924 122.036 181.82 128.756 188.492C135.476 195.164 143.78 198.5 153.668 198.5C163.556 198.5 172.052 194.564 179.156 186.692L133.94 142.052C140.18 137.06 146.18 134.564 151.94 134.564C157.7 134.564 162.86 135.884 167.42 138.524C171.98 141.164 175.748 144.692 178.724 149.108L178.724 141.764C171.908 134.276 163.652 130.532 153.956 130.532L153.956 130.532ZM247.108 131.7L251.284 131.7L219.46 198.372L187.492 131.7L192.532 131.7L219.892 188.58L247.108 131.7ZM103.972 88.5L103.972 196.5L99.364 196.5L99.364 180.804C96.484 186.084 92.308 190.284 86.836 193.404C81.364 196.524 75.748 198.084 69.988 198.084C60.484 198.084 52.396 194.748 45.724 188.076C39.052 181.404 35.716 173.412 35.716 164.1C35.716 154.788 39.052 146.796 45.724 140.124C52.396 133.452 60.484 130.116 69.988 130.116C75.94 130.116 81.676 131.7 87.196 134.868C92.716 138.036 96.772 142.26 99.364 147.54L99.364 88.5L103.972 88.5ZM40.324 164.244C40.324 172.308 43.204 179.292 48.964 185.196C54.724 191.1 61.66 194.052 69.772 194.052C77.884 194.052 84.892 191.1 90.796 185.196C96.7 179.292 99.652 172.308 99.652 164.244C99.652 156.18 96.7 149.148 90.796 143.148C84.892 137.148 77.908 134.148 69.844 134.148C61.78 134.148 54.844 137.124 49.036 143.076C43.228 149.028 40.324 156.084 40.324 164.244L40.324 164.244Z" id="path_1" />
  </defs>
  <g id="Group-2" transform="translate(520 494)">
    <path d="M55.999 0L231.001 0Q232.376 0 233.749 0.0674532Q235.122 0.134906 236.49 0.26965Q237.858 0.404394 239.218 0.606104Q240.578 0.807815 241.926 1.076Q243.274 1.3442 244.608 1.67822Q245.941 2.01224 247.257 2.4113Q248.572 2.81035 249.866 3.27347Q251.161 3.73659 252.431 4.26267Q253.701 4.78874 254.944 5.3765Q256.186 5.96426 257.399 6.61229Q258.611 7.26032 259.79 7.96705Q260.969 8.67379 262.112 9.43753Q263.255 10.2013 264.36 11.0202Q265.464 11.8391 266.526 12.7112Q267.589 13.5833 268.608 14.5065Q269.626 15.4297 270.598 16.4017Q271.57 17.3738 272.493 18.3924Q273.417 19.411 274.289 20.4736Q275.161 21.5363 275.98 22.6404Q276.799 23.7446 277.562 24.8876Q278.326 26.0306 279.033 27.2098Q279.74 28.3889 280.388 29.6013Q281.036 30.8136 281.623 32.0563Q282.211 33.2991 282.737 34.5691Q283.263 35.8392 283.726 37.1335Q284.19 38.4278 284.589 39.7433Q284.988 41.0588 285.322 42.3923Q285.656 43.7258 285.924 45.0741Q286.192 46.4224 286.394 47.7822Q286.596 49.1421 286.73 50.5101Q286.865 51.8782 286.933 53.2513Q287 54.6243 287 55.999L287 231.001Q287 232.376 286.933 233.749Q286.865 235.122 286.73 236.49Q286.596 237.858 286.394 239.218Q286.192 240.578 285.924 241.926Q285.656 243.274 285.322 244.608Q284.988 245.941 284.589 247.257Q284.19 248.572 283.727 249.866Q283.263 251.161 282.737 252.431Q282.211 253.701 281.623 254.944Q281.036 256.186 280.388 257.399Q279.74 258.611 279.033 259.79Q278.326 260.969 277.562 262.112Q276.799 263.255 275.98 264.36Q275.161 265.464 274.289 266.526Q273.417 267.589 272.493 268.608Q271.57 269.626 270.598 270.598Q269.626 271.57 268.608 272.493Q267.589 273.417 266.526 274.289Q265.464 275.161 264.36 275.98Q263.255 276.799 262.112 277.562Q260.969 278.326 259.79 279.033Q258.611 279.74 257.399 280.388Q256.186 281.036 254.944 281.623Q253.701 282.211 252.431 282.737Q251.161 283.263 249.866 283.726Q248.572 284.19 247.257 284.589Q245.941 284.988 244.608 285.322Q243.274 285.656 241.926 285.924Q240.578 286.192 239.218 286.394Q237.858 286.596 236.49 286.73Q235.122 286.865 233.749 286.933Q232.376 287 231.001 287L55.999 287Q54.6243 287 53.2513 286.933Q51.8782 286.865 50.5101 286.73Q49.1421 286.596 47.7822 286.394Q46.4224 286.192 45.0741 285.924Q43.7258 285.656 42.3923 285.322Q41.0588 284.988 39.7433 284.589Q38.4278 284.19 37.1335 283.727Q35.8392 283.263 34.5691 282.737Q33.2991 282.211 32.0563 281.623Q30.8136 281.036 29.6013 280.388Q28.3889 279.74 27.2098 279.033Q26.0306 278.326 24.8876 277.562Q23.7446 276.799 22.6404 275.98Q21.5363 275.161 20.4736 274.289Q19.411 273.417 18.3924 272.493Q17.3738 271.57 16.4017 270.598Q15.4297 269.626 14.5065 268.608Q13.5833 267.589 12.7112 266.526Q11.8391 265.464 11.0202 264.36Q10.2013 263.255 9.43753 262.112Q8.67379 260.969 7.96705 259.79Q7.26032 258.611 6.61229 257.399Q5.96426 256.186 5.3765 254.944Q4.78874 253.701 4.26267 252.431Q3.73659 251.161 3.27347 249.866Q2.81035 248.572 2.4113 247.257Q2.01224 245.941 1.67822 244.608Q1.3442 243.274 1.076 241.926Q0.807815 240.578 0.606104 239.218Q0.404394 237.858 0.26965 236.49Q0.134906 235.122 0.0674532 233.749Q0 232.376 0 231.001L0 55.999Q0 54.6243 0.0674532 53.2513Q0.134906 51.8782 0.26965 50.5101Q0.404394 49.1421 0.606104 47.7822Q0.807815 46.4224 1.076 45.0741Q1.3442 43.7258 1.67822 42.3923Q2.01224 41.0588 2.4113 39.7433Q2.81035 38.4278 3.27347 37.1335Q3.73659 35.8392 4.26267 34.5691Q4.78874 33.2991 5.3765 32.0563Q5.96426 30.8136 6.61229 29.6013Q7.26032 28.3889 7.96705 27.2098Q8.67379 26.0306 9.43753 24.8876Q10.2013 23.7446 11.0202 22.6404Q11.8391 21.5363 12.7112 20.4736Q13.5833 19.411 14.5065 18.3924Q15.4297 17.3738 16.4017 16.4017Q17.3738 15.4297 18.3924 14.5065Q19.411 13.5833 20.4736 12.7112Q21.5363 11.8391 22.6404 11.0202Q23.7446 10.2013 24.8876 9.43753Q26.0306 8.67379 27.2098 7.96705Q28.3889 7.26032 29.6013 6.61229Q30.8136 5.96426 32.0563 5.3765Q33.2991 4.78874 34.5691 4.26267Q35.8392 3.73659 37.1335 3.27347Q38.4278 2.81035 39.7433 2.4113Q41.0588 2.01224 42.3923 1.67822Q43.7258 1.3442 45.0741 1.076Q46.4224 0.807815 47.7822 0.606104Q49.1421 0.404394 50.5101 0.26965Q51.8782 0.134906 53.2513 0.0674532Q54.6243 0 55.999 0L55.999 0Z" id="Rectangle" fill="url(#gradient_1)" fill-rule="evenodd" stroke="none" />
    <g id="dev">
      <use stroke="none" fill="#FFFFFF" xlink:href="#path_1" filter="url(#filter_1)" />
    </g>
  </g>
</svg>