<?xml version="1.0" encoding="UTF-8"?>
<svg width="287px" height="287px" viewBox="0 0 287 287" version="1.1" xmlns="http://www.w3.org/2000/svg" xmlns:xlink="http://www.w3.org/1999/xlink">
    <title>Group 2</title>
    <defs>
        <linearGradient x1="30.230558%" y1="4.9843605e-07%" x2="99.407935%" y2="101.27736%" id="linearGradient-1">
            <stop stop-color="#13DEAF" offset="0%"></stop>
            <stop stop-color="#051476" offset="98.04446%"></stop>
        </linearGradient>
        <path d="M152.37199,194.46802 C144.787984,194.46802 138.043988,191.516024 132.139988,185.612025 C126.235989,179.708024 123.283993,172.916017 123.283993,165.236017 C123.283993,157.556017 125.827992,150.836021 130.915989,145.07602 L172.819988,186.692019 C166.867991,191.876017 160.051998,194.46802 152.37199,194.46802 L152.37199,194.46802 Z M153.956019,130.532005 L152.660015,130.532005 C143.540021,130.532005 135.59602,133.963998 128.828023,140.827997 C122.060026,147.692004 118.676023,155.684 118.676023,164.804001 C118.676023,173.924003 122.036023,181.82 128.756024,188.492005 C135.476024,195.164001 143.780026,198.5 153.668019,198.5 C163.556011,198.5 172.052014,194.564003 179.156019,186.692001 L133.940023,142.052013 C140.18002,137.060009 146.180011,134.564002 151.940015,134.564002 C157.700024,134.564002 162.860026,135.884012 167.420021,138.524008 C171.980019,141.164012 175.748011,144.692002 178.72401,149.108002 L178.72401,141.764002 C171.908015,134.276008 163.65202,130.532005 153.956019,130.532005 L153.956019,130.532005 Z M247.108002,131.700012 L251.283995,131.700012 L219.459991,198.372002 L187.492003,131.700012 L192.531996,131.700012 L219.891998,188.580014 L247.108002,131.700012 Z M103.972003,88.5 L103.972003,196.5 L99.3640131,196.5 L99.3640131,180.804 C96.4840058,186.083998 92.3080014,190.283997 86.8359997,193.404007 C81.364005,196.524006 75.7480037,198.084 69.9880027,198.084 C60.4840031,198.084 52.3960043,194.748004 45.7240042,188.076008 C39.0520027,181.404 35.716003,173.412006 35.716003,164.100007 C35.716003,154.788002 39.0520027,146.796003 45.7240042,140.124 C52.3960043,133.451997 60.4840031,130.115998 69.9880027,130.115998 C75.940001,130.115998 81.6760031,131.699998 87.1960092,134.867997 C92.716003,138.035997 96.7720052,142.259996 99.3640131,147.540002 L99.3640131,88.5 L103.972003,88.5 Z M40.323974,164.244017 C40.323974,172.308013 43.203973,179.292017 48.9639728,185.196014 C54.7239736,191.100019 61.6599727,194.052017 69.7719737,194.052017 C77.88397,194.052017 84.8919749,191.100019 90.7959724,185.196014 C96.6999717,179.292017 99.651969,172.308013 99.651969,164.244017 C99.651969,156.180015 96.6999717,149.14801 90.7959724,143.14801 C84.8919749,137.14801 77.9079711,134.14801 69.8439747,134.14801 C61.7799731,134.14801 54.8439716,137.124016 49.0359738,143.076019 C43.2279732,149.028014 40.323974,156.084015 40.323974,164.244017 L40.323974,164.244017 Z" id="path-2"></path>
        <filter x="-0.7%" y="-1.4%" width="101.4%" height="102.7%" filterUnits="objectBoundingBox" id="filter-3">
            <feGaussianBlur stdDeviation="0.5" in="SourceAlpha" result="shadowBlurInner1"></feGaussianBlur>
            <feOffset dx="0" dy="2" in="shadowBlurInner1" result="shadowOffsetInner1"></feOffset>
            <feComposite in="shadowOffsetInner1" in2="SourceAlpha" operator="arithmetic" k2="-1" k3="1" result="shadowInnerInner1"></feComposite>
            <feColorMatrix values="0 0 0 0 0.39215687   0 0 0 0 0.39215687   0 0 0 0 0.39215687  0 0 0 0.49803922 0" type="matrix" in="shadowInnerInner1"></feColorMatrix>
        </filter>
    </defs>
    <g id="Page-1" stroke="none" stroke-width="1" fill="none" fill-rule="evenodd">
        <g id="Group-2">
            <rect id="Rectangle" fill="url(#linearGradient-1)" x="0" y="0" width="287" height="287" rx="55"></rect>
            <g id="dev" fill-rule="nonzero">
                <use fill="#FFFFFF" xlink:href="#path-2"></use>
                <use fill="black" fill-opacity="1" filter="url(#filter-3)" xlink:href="#path-2"></use>
            </g>
        </g>
    </g>
</svg>